<?xml version="1.0" encoding="UTF-8"?>
<svg fill="#fff" id="Capa_2" data-name="Capa 2" xmlns="http://www.w3.org/2000/svg" viewBox="0 0 512.43 525.45">
  <polygon class="cls-1" points="372.37 409.03 329.25 476.78 329.25 476.78 371.58 410.27 372.37 409.03" />
  <path class="cls-1"
      d="m352.63,199.69c-.62,0-1.12.46-1.13,1.05,0,.59.49,1.06,1.11,1.07.62,0,1.12-.46,1.13-1.05,0-.58-.49-1.06-1.11-1.07Z" />
  <path class="cls-1"
      d="m189.54,192.77c-.62,0-1.12.46-1.13,1.05s.49,1.06,1.11,1.07c.62,0,1.12-.46,1.13-1.05s-.49-1.06-1.11-1.07Z" />
  <path class="cls-1"
      d="m189.49,197.91c-.62,0-1.12.46-1.13,1.05,0,.59.49,1.06,1.11,1.07.62,0,1.12-.46,1.13-1.05,0-.58-.49-1.06-1.11-1.07Z" />
  <path class="cls-1"
      d="m352.69,194.55c-.62,0-1.12.46-1.13,1.05,0,.58.49,1.06,1.11,1.07.62,0,1.12-.46,1.13-1.05,0-.58-.49-1.06-1.11-1.07Z" />
  <circle class="cls-1" cx="317.24" cy="206.55" r="6.82" />
  <path class="cls-1" d="m297.48,276.66l-50.95-1.8c18.69,17.38,34.82,17.98,50.95,1.8Z" />
  <circle class="cls-1" cx="224.54" cy="206.55" r="6.82" />
  <path class="cls-1" d="m297.89,216.53c8.35,12.84,26.34,15.09,35.05,1.33-12.65,9.12-22.71,7.06-35.05-1.33Z" />
  <path class="cls-1" d="m206.76,216.53c8.35,12.84,26.34,15.09,35.05,1.33-12.65,9.12-22.71,7.06-35.05-1.33Z" />
  <path class="cls-1"
      d="m265.78,374.67c-27.68,0-54.1-9.05-72.97-24.9l19.47,130.3c16.73,3.75,34.13,5.74,52,5.74s36.53-2.13,53.83-6.15l19.24-128.73c-18.77,15.13-44.57,23.73-71.56,23.73Zm-16.44,80.89c-.66.36-1.33.53-2.01.53-.87,0-1.93-.41-3.18-1.22-7.83-4.4-12.45-7.01-13.86-7.84-1.02-.93-1.53-2-1.53-3.18,0-1.58.87-2.87,2.62-3.87,9.56-6.62,14.4-9.93,14.52-9.93.61-.27,1.21-.41,1.78-.41,1.34,0,2.45.62,3.34,1.86.42.7.64,1.42.64,2.17,0,1.56-.9,2.86-2.7,3.9-5.57,3.82-8.44,5.81-8.61,5.96v.03c.85.51,3.93,2.27,9.25,5.27,1.15.92,1.73,2.03,1.73,3.34,0,1.39-.66,2.53-1.99,3.41Zm10.06,11.77c-.14.48-.59,1.07-1.35,1.78-.78.56-1.6.84-2.45.84-1.46,0-2.64-.73-3.54-2.19-.27-.66-.41-1.28-.41-1.86,0-.42.37-2.05,1.1-4.89,4.38-18.1,6.72-27.72,7.03-28.86.15-.44.57-.98,1.25-1.63.76-.59,1.6-.89,2.5-.89,1.46,0,2.64.74,3.54,2.22.27.65.41,1.26.41,1.83,0,.39-.31,1.83-.92,4.3l-7.16,29.34Zm28.17-7.56c-9.08,6.28-13.83,9.53-14.24,9.73-.58.31-1.15.46-1.71.46h-.31c-1.48,0-2.65-.79-3.52-2.37-.22-.56-.33-1.05-.33-1.48v-.23c0-1.51.92-2.81,2.75-3.9,5.48-3.77,8.34-5.74,8.56-5.91-.03-.05-2.1-1.23-6.19-3.54-2.05-1.1-3.25-1.83-3.59-2.19-.8-.87-1.2-1.79-1.2-2.78v-.15c0-1.39.7-2.55,2.11-3.46.63-.31,1.21-.46,1.76-.46h.23c.83,0,1.95.46,3.36,1.38,8.54,4.79,13.08,7.37,13.63,7.74.98.9,1.48,1.89,1.48,2.98v.25c0,1.56-.93,2.87-2.8,3.92Z" />
  <path class="cls-1"
      d="m173.07,199.18c-.03.4-.05.62-.05.62,0,0,0,.02,0,.05,0,.02,0,.04,0,.06,0,.04,0,.1,0,.16,0,.04,0,.08,0,.13,0,.08,0,.17,0,.27,0,.05,0,.11,0,.17,0,.12,0,.25,0,.4,0,.08,0,.17,0,.27,0,.13,0,.26,0,.41,0,.1,0,.2,0,.3,0,.17,0,.36,0,.55,0,.16,0,.32,0,.49,0,.15,0,.31,0,.47,0,.16,0,.32,0,.48,0,.2,0,.41,0,.62,0,.24,0,.48,0,.74,0,.18,0,.36,0,.55,0,.2,0,.4,0,.61,0,.02,0,.04,0,.07l-.02-.06.64,72.24c.16,17.51,8.25,34,22,44.84l4.57,3.6c9.23,7.28,20.47,11.57,32.21,12.29l27.23,1.67c8.25.51,16.53.54,24.79.1l32.78-1.74c13.98-.74,27.22-6.54,37.25-16.31h0c11.01-10.73,17.29-25.41,17.44-40.79l.88-89.69h0c.69-19.57-.41-37.51-1.35-48.36,4.1-.73,8.33-1.59,12.72-2.64,0,0,3.95-55.55-91.78-68.09,0,0,45.4,3.58,76.98,20.61,0,0-91.35-86.46-167.01-1.98-.91-1.7-1.82-3.41-2.78-5.09-.85-1.49-1.64-3.07-2.09-4.77-1.95-7.1-1.13-14.7,1.58-21.57l-.54-.33c-2.35,3.17-3.99,6.81-5.1,10.68-1.7,5.99-1.39,12.43.4,18.4.12.36.24.72.38,1.07-1.35-1.03-2.64-2.19-3.73-3.53-4.68-5.73-7.22-13.25-7.43-20.74l-.62-.09c-.91,3.91-.93,7.99-.33,12.04,1.03,6.4,4.01,12.64,8.46,17.44-12.95,3.19-33.99,13.02-35.34,43.27-1.97,43.9,9.87,60.02,9.87,60.02,0,0,4.36-1.72,8.04.08Zm127.14,94.81l-19.12,10.48c-4.61,2.53-10.18,2.59-14.85.17l-26.82-13.91c-6.98-3.62-10.23-11.83-7.62-19.25,1.95-5.55,6.82-9.58,12.65-10.38,4.85-.67,10.87-1.11,16.5-.46,12.13,1.4,47.62,1.66,50.04,10.34.43,1.55.59,3.16.56,4.75-.15,7.66-4.63,14.57-11.34,18.25Zm-111.5-127.14s28.62-5.38,24.67-46.59c0,0,38.49,44.79,93.75,36.73l-12.83-16.13s20.46,8.74,56.21,6.17c3.95,15.66,5.55,30.77,5.73,44.66-1.5-.17-7.96-.92-15.98-1.68-3.32-9.13-12.25-15.44-22.2-16.33-10.65-1.1-21.86,5.89-24.48,16.32-8.33,1.55-14.63,3.6-19.29,4.05-.86.02-1.63.03-2.36.04-.12-.44-.24-.89-.36-1.33-.01.45-.02.89-.03,1.34-3.14.02-5.48-.19-10.73-1.59-2.54-.67-6.42-1.8-11.33-2.84-3.42-8.94-12.26-15.1-22.08-15.98-10.1-1.04-20.7,5.19-24,14.72-9.1.65-16.51,1.35-17.57,1.45.74-5.85,1.68-13.35,2.86-23.01Zm163.95,29.81c-.62,0-1.11-.49-1.11-1.07,0-.58.51-1.05,1.13-1.05.62,0,1.11.49,1.11,1.07,0,.58-.51,1.05-1.13,1.05Zm1.07,4.1c0,.59-.51,1.05-1.13,1.05-.62,0-1.11-.49-1.11-1.07,0-.58.51-1.05,1.13-1.05.62,0,1.11.49,1.11,1.07Zm-6.45,10.97c-1.53,11.66-3.6,13.76-9.45,15.93-5.84,2.17-31.2,4.8-42.21-.28,0,0-7.01-2.5-10.66-14.15-3.65-11.66-2.31-17.09,5.45-19.12,0,0,11.42-2.9,24.21-2.94,9.31-.03,18.4.61,23.98,1.75.3.06.6.13.9.19,1.65.38,2.95.8,3.74,1.28,3.43,2.03,5.57,5.69,4.03,17.35Zm-96.72-18.36c.79.2,1.23.32,1.23.32,7.72,2.2,8.93,7.66,5.03,19.23-3.9,11.57-10.96,13.92-10.96,13.92-11.12,4.84-36.41,1.66-42.21-.64-5.79-2.3-7.82-4.44-9.1-16.13-1.28-11.69.93-15.3,4.41-17.26.8-.45,2.09-.85,3.73-1.19.21-.04.43-.09.64-.13,5.58-1.05,14.84-1.51,24.31-1.27,5.83.15,11.35.88,15.65,1.64,2.41.57,4.83,1.13,7.28,1.6,0-.03-.02-.06-.02-.09Zm-61.05,1.51c-.62,0-1.11-.49-1.11-1.07s.51-1.05,1.13-1.05c.62,0,1.11.49,1.11,1.07s-.51,1.05-1.13,1.05Zm1.07,4.1c0,.59-.51,1.05-1.13,1.05-.62,0-1.11-.49-1.11-1.07,0-.58.51-1.05,1.13-1.05.62,0,1.11.49,1.11,1.07Zm-6.2,2.12c.34-2.55.76-5.82,1.29-9.99l-.12,10.74s2.84,3.24,3.02,4.21c.18.97,3.38,13.04,3.38,13.04,0,0,1.21,6.61,7.83,9.1,6.62,2.49,15.12,3.8,23.75,4.13,8.63.34,19.63.58,25.69-3.35,6.06-3.93,9.19-10.12,11.76-16.81l2.57-6.69s1.12-2.95,4.45-3.28c1.56-.15,2.48-.21,3.53-.16.26,13.75,1.93,27.44,4.23,41.01-3.3,2.02-6.56,4.12-9.73,6.34-4.31,3.09-4.26,2.93.63,1.19,4.44-1.64,8.83-3.46,13.13-5.44,0,0-.09-1.4-.09-1.4-1.02-13.94-2.66-27.85-5.73-41.48.02,0,.03,0,.05,0,3.32.4,4.38,3.38,4.38,3.38l2.42,6.74c7.02,19.54,15.45,21.34,37,20.97,8.64-.15,17.16-1.27,23.83-3.61,6.68-2.35,8.03-8.93,8.03-8.93,0,0,3.46-12,3.66-12.97.15-.73,1.86-2.73,2.68-3.66-.41,8.78-1.33,16.92-2.5,24.18-5.13,26.98-14.18,59.59-28.03,60.11-11.62.44-9.11-6.67-8.89-14.24,1.49,1.39,2.88,3.02,4.14,5.03,1.03-5.46-1.98-11.19-5.88-14.95-11.09-10.39-30.25-13.24-44.46-8.91-12.69-5.52-28.8-6.96-41.05-1.9-5.26,2.22-10.66,6.65-11.62,12.52,1.89-1.61,3.81-2.77,5.78-3.62-1.78,3.42-2.97,7.98-3.61,13.99-2.08,19.6-24.76-5.52-34.26-50.8,0,0,0,0,0,0-.44-2.12-.86-4.28-1.24-6.49,0-.04-.01-.07-.02-.11-.18-1.04-.35-2.09-.52-3.14-.01-.08-.03-.17-.04-.25-.14-.88-.26-1.76-.39-2.65.14-3.96.44-7.92.96-11.85Z" />
  <polygon class="cls-1" points="361.2 353.12 361.2 353.12 378.42 346.43 376.64 347.12 361.2 353.12" />
  <polygon class="cls-1" points="375.19 347.68 376.64 347.12 377.44 346.8 375.19 347.68" />
  <path class="cls-1"
      d="m135.32,387.17l1.63-2.21,21.99-29.84-25.99-10.11c-26.89,12.18-44.76,29.59-56.58,48.06,28.75,37.45,68.44,66.06,114.3,81.05l-53.86-84.65-1.47-2.31Z" />
  <path class="cls-1"
      d="m397.11,345.03l-.21.08-27.38,10.65,21.99,29.84,1.63,2.21-1.47,2.31-53.38,83.89c45.82-15.06,85.46-43.73,114.15-81.23-11.61-18.27-29.08-35.52-55.32-47.74Z" />
  <polygon class="cls-1" points="329.25 476.78 329.25 476.78 371.58 410.27 329.25 476.78" />
  <path class="cls-1"
      d="m382.36,393.32l3.92-6.16-25.08-34.04,32.25-12.54s-12.85-13.81-27.17-23.87c-2.42,3.64-5.21,7.05-8.37,10.12-1.49,1.45-3.05,2.8-4.66,4.09-.36.28-.71.57-1.07.85-.71.54-1.42,1.06-2.15,1.57-.43.3-.87.59-1.31.88-.39.26-.78.51-1.18.76-.53.33-1.06.66-1.59.98l-21.23,142.06c1.52-.4,3.03-.8,4.53-1.23l43.12-67.76,9.99-15.7Z" />
<polygon class="cls-1" points="373.72 406.91 372.37 409.03 371.58 410.27 373.72 406.91" />
<path class="cls-1"
  d="m189.74,371.8l-4.96-33.17c-.13-6.86.5-12.36,1.48-16.73-3.25-3.34-6.09-7.01-8.48-10.93-18.95,9.25-40.9,29.6-40.9,29.6l32.25,12.54-16.34-6.35,16.34,6.35-25.08,34.04,57.4,90.2c1.41.39,2.81.77,4.23,1.13l-15.94-106.7h0Z" />
<path class="cls-1"
  d="m168.36,251.7l-.4-45.11-.03-3.1c-.57.1-.99.24-1.09.28l-3.51,1.48-2.33-3.18c-.07-.1-.36-.51-.8-1.24-5.32,2.8-11.2,8.87-9.31,22.01,2.12,14.69,9.13,24.84,17.47,28.86Z" />
<path class="cls-1"
  d="m376.15,199.39l-.49,49.63c6.4-5.05,11.47-14.08,13.22-26.19,2.32-16.1-7.03-21.6-12.73-23.44Z" />
</svg>